<svg xmlns="http://www.w3.org/2000/svg" viewBox="0 0 221.11 221.11"><defs><style>.cls-1{fill:#2bb673;}.cls-2{fill:#fff;}</style></defs><title>Asset 3</title><g id="Layer_2" data-name="Layer 2"><g id="Layer_1-2" data-name="Layer 1"><rect class="cls-1" width="221.11" height="221.11" rx="14.81"/><path class="cls-2" d="M109.9,160.2a7.7,7.7,0,0,1-1-.62c-4.83-4.88-10.76-8.1-16.9-10.94a84.08,84.08,0,0,0-27.18-7.41c-2.55-.26-5.13-.37-7.7-.47-2-.09-2.09-.08-2.09-2.2q0-20,0-40Q55,76.44,55,54.3c0-1.87.42-2.32,2.2-2.24a113.57,113.57,0,0,1,18.84,2.12c11.12,2.37,21.52,6.4,30.65,13.33.56.42,1.09.87,1.64,1.3a4.3,4.3,0,0,1,1.59,3.66q0,21.11,0,42.19,0,21.84,0,43.67Z"/><path class="cls-2" d="M111.23,159.89v-1.3q0-42.68,0-85.35a6.15,6.15,0,0,1,2.49-5.19,71.8,71.8,0,0,1,23.39-11.82,88.92,88.92,0,0,1,21.77-3.81c1.67-.08,3.34-.23,5-.35,1.83-.13,2.26.26,2.26,2.09q0,37.47-.07,74.93c0,3.39,0,6.78,0,10.17,0,1.17-.39,1.49-1.56,1.51-15.41.28-29.92,3.92-43.16,11.94a109.91,109.91,0,0,0-8.92,6.66l-.84.65Z"/><path class="cls-2" d="M39.33,115.2V74.72c0-2.44,1.27-3.3,3.53-2.32a1.82,1.82,0,0,1,.83,1.09,6.89,6.89,0,0,1,.12,1.82q0,36.32,0,72.63c0,1.47-.07,2.94-.12,4.41,0,1,.41,1.38,1.4,1.38,3.64,0,7.28-.1,10.89.17,5.5.4,11,.93,16.46,1.67a142.34,142.34,0,0,1,27.2,6.11,25.22,25.22,0,0,1,5.18,2.74c3.59,2.28,7.39,2.62,10.86.34a41.57,41.57,0,0,1,12.41-5.06A180.3,180.3,0,0,1,163.81,154c4-.25,8-.32,12-.45,1.59,0,1.63,0,1.62-1.68,0-7.6-.09-15.21-.1-22.81q0-27.17-.06-54.34c0-2.35.7-2.9,3-2.53a1.61,1.61,0,0,1,1.49,1.87c0,2.45,0,4.91,0,7.36l0,74.71c0,1.68-.31,2-2,2a258,258,0,0,0-32.29,1.75,142.31,142.31,0,0,0-24.61,4.86,8.5,8.5,0,0,0-4,2.34,7.08,7.08,0,0,1-5.38,2c-2.85,0-5.7-.21-8.54-.45a3.33,3.33,0,0,1-2-.87,13.07,13.07,0,0,0-6.27-3.43A143.27,143.27,0,0,0,75,160.06a270.08,270.08,0,0,0-34-1.94c-1.39,0-1.62-.28-1.62-1.94v-41Z"/><path class="cls-2" d="M173.9,105.49v41.09c0,2.12-.09,2.19-2.21,2.21a135.21,135.21,0,0,0-41.25,6.37A74.94,74.94,0,0,0,111.78,164c-.68.45-1.27.8-2.1.22-7.54-5.2-16-8.32-24.72-10.75a120.9,120.9,0,0,0-25.33-4.22c-3.55-.22-7.1-.33-10.66-.46-1.48,0-1.76-.29-1.76-1.83q0-9.37,0-18.76,0-23.13,0-46.25c0-6,0-11.94,0-17.9,0-2,.63-2.48,2.55-2.2a1.41,1.41,0,0,1,1.4,1.41c0,.61.07,1.22.07,1.83q0,28.83-.06,57.66,0,10.35-.1,20.72c0,1,.29,1.28,1.25,1.3a117.54,117.54,0,0,1,25.61,3.16c11.27,2.76,22,6.9,31.56,13.59a1.71,1.71,0,0,0,2.22,0c12.31-8.44,26-13.26,40.7-15.31,5.41-.76,10.89-1,16.34-1.37,1.21-.09,1.37-.59,1.36-1.61q-.09-38.76-.15-77.52c0-.57,0-1.14,0-1.72.06-1.89.63-2.36,2.54-2.15,1,.1,1.49.56,1.47,1.57,0,.62,0,1.23,0,1.84v40.24Z"/></g></g></svg>