<svg xmlns="http://www.w3.org/2000/svg" viewBox="0 0 221.11 221.11"><defs><style>.cls-1{fill:#fff}</style></defs><g id="Layer_2" data-name="Layer 2"><g id="Layer_1-2" data-name="Layer 1"><path d="M126.83 63.47c-6.9-.39-13.81-.73-21.31-1.11 1.39 4.1 2.52 7.57 3.79 11a2.08 2.08 0 0 0 1.56 1c7.63.28 15.25.48 23.22.7-2-3.61-4-7.21-6-10.77a1.85 1.85 0 0 0-1.26-.82Z" class="cls-1"/><path d="M206.3 0H14.81A14.81 14.81 0 0 0 0 14.81V206.3a14.81 14.81 0 0 0 14.81 14.81H206.3a14.81 14.81 0 0 0 14.81-14.81V14.81A14.81 14.81 0 0 0 206.3 0ZM61.88 152.41a201.43 201.43 0 0 1-33.66-88.29c-.62-4.79-.62-4.79 3.72-6.57 14-5.72 31.71-10.84 43.34-12.47 1 4.79 1.84 9.48 3.13 14 2.31 8.21 4.86 16.36 7.47 24.48.54 1.67.42 2.64-.87 3.86-2.81 2.66-5.41 5.5-8.41 8.58 4.65.82 8.77 1.62 12.91 2.25a4.89 4.89 0 0 1 4 2.85c4 7.27 8.16 14.4 12.18 21.64a3.21 3.21 0 0 1 .24 2.69C102 130.77 98 136 93.77 141.5a23.66 23.66 0 0 1-1.84-2.32c-5.92-9.79-11.86-19.57-17.67-29.43a5.07 5.07 0 0 0-8.33-.82c-2.38 2.63-2.7 4.93-.86 8.09 6.48 11.19 12.72 22.51 19.3 34.22l-14.06 12.88c-2.92-4.04-5.78-7.8-8.43-11.71Zm98-2.64-16.82-11.59c2.46-4.07 4.93-8.16 7.64-12.63-4-.81-7.54-1.6-11.15-2.21a2.34 2.34 0 0 0-1.75 1.07c-3.56 5.67-7.05 11.38-10.51 17l26.45 17.18A207.74 207.74 0 0 1 110 202.18a209.31 209.31 0 0 1-36.4-34.11c1.89-1.68 3.75-3.25 5.52-4.92 3.79-3.56 7.51-7.19 11.34-10.72.61-.56 1.78-1.21 2.37-1 6.44 2.54 12.82 5.25 19.71 8.12l-9.57 10 7.29 6.62 19.47-19.93-29.61-14.43c2-2.54 4.37-5.13 6.24-8.05q9.69-15.1 19.06-30.43c.89-1.45 1.59-2.14 3.42-2A195.83 195.83 0 0 1 179.12 113a210.6 210.6 0 0 1-19.23 36.77Zm29.38-70.22c-8.37-2.92-16.36-5.89-24.47-8.47-5.36-1.71-10.88-2.89-16.36-4.19-.75-.18-2.1 0-2.41.56a5.25 5.25 0 0 0-.81 3.46 15.51 15.51 0 0 0 2.21 4.76 4.86 4.86 0 0 0 2.63 2 222.57 222.57 0 0 1 34.7 10l2.37.94c-2 6.48-4 12.88-6 19.32-6.44-2-12.45-3.94-18.53-5.64a190.86 190.86 0 0 0-62.5-6.77c-2.83.16-4.09-.7-5.23-3.27a203.78 203.78 0 0 1-14.09-46.31c-.08-.43-.07-.87-.14-1.8 4.53-.48 9-1.27 13.55-1.36 10.57-.2 21.14 0 31.71-.09a3.91 3.91 0 0 1 3.65 2c2.76 4.28 5.63 8.5 8.55 12.9 2.62-3.55 5.21-7 7.68-10.48a2.79 2.79 0 0 1 3.29-1.3 211.64 211.64 0 0 1 41.74 13c.62.26 1.43 1.24 1.35 1.78-.88 6.41-1.91 12.74-2.88 18.96Z" class="cls-1"/><path d="M65.46 89.53c-2-6.54-4.11-13-6.29-19.88-2.37.76-4.59 1.59-6.88 2.18-1.83.48-2.08 1.46-1.6 3.1 2.21 7.59 4.36 15.19 6.55 22.79a16.7 16.7 0 0 0 .86 2c2.44-2.93 4.73-5.6 6.92-8.34a2.33 2.33 0 0 0 .44-1.85Z" class="cls-1"/></g></g></svg>