<svg xmlns="http://www.w3.org/2000/svg" xmlns:xlink="http://www.w3.org/1999/xlink" viewBox="0 0 221.11 221.11"><defs><style>.cls-1{fill:none;}.cls-2{fill:#fcc023;}.cls-3{clip-path:url(#clip-path);}.cls-4{fill:#f7c22d;}.cls-5{fill:#fffcf3;}.cls-6{fill:#f2d27c;}</style><clipPath id="clip-path"><rect class="cls-1" x="33.3" y="36.44" width="144.18" height="144.18"/></clipPath></defs><title>Asset 4</title><g id="Layer_2" data-name="Layer 2"><g id="Layer_1-2" data-name="Layer 1"><rect class="cls-2" width="221.11" height="221.11" rx="14.81"/><g class="cls-3"><path class="cls-4" d="M65,22.64h87.38a16,16,0,0,0,4.34.62.49.49,0,0,0,.53.44,42.59,42.59,0,0,1,4.37.64,32.64,32.64,0,0,1,8.72,2.25,37.67,37.67,0,0,1,9,5.35,38.22,38.22,0,0,1,8.43,9.42A30.76,30.76,0,0,1,191.89,51a46.53,46.53,0,0,1,1.8,11.67,26.33,26.33,0,0,0,.25,3.54c.05.42,0,1,.59,1.18V152.2c-.14,0-.35-.07-.37.08-.3,1.8-.79,3.59-.32,5.43l0,1c-.39.19-.35.6-.47.93a21.9,21.9,0,0,0-.43,3.42c-.44,2.26-1.15,4.45-1.8,6.66a29.92,29.92,0,0,1-4.68,8.91,62.42,62.42,0,0,1-5.78,6.39,26.73,26.73,0,0,1-6.43,4.82,30.06,30.06,0,0,1-10.83,3.68c-2.7.35-5.33,1.12-8.09,1.16a20.58,20.58,0,0,0-5.71.73,13.33,13.33,0,0,1,2.09.24q-19.18,0-38.37,0-24.47,0-48.95,0c.64-.29,1.35,0,2.18-.3l-1.84-.3c-2.28-.36-4.61-.23-6.88-.55a49.93,49.93,0,0,1-13.12-3.19,36.82,36.82,0,0,1-8.19-4.88,35.17,35.17,0,0,1-6.25-6.47,32.94,32.94,0,0,1-5.91-11.63,57.51,57.51,0,0,1-2-12.95c-.05-1.77-.6-3.48-.48-5.26a.56.56,0,0,0-.35-.51q0-26.64,0-53.29,0-15.09,0-30.17c.6-.35.55-1,.57-1.53a59.37,59.37,0,0,1,1.55-12.16,34.94,34.94,0,0,1,1.7-5.55,41.26,41.26,0,0,1,6.12-10,35.68,35.68,0,0,1,18-11.61A78.69,78.69,0,0,1,64,23.08C64.36,23.05,64.81,23.17,65,22.64ZM129.59,57c-.18.15-.19.3,0,.45l0,.39c-.35.42-.54,1.06-1.33.78-.12,0-.34.21-.51.33a15.11,15.11,0,0,1-3-2.78c-1.61-1.73-3.47-3.19-5-5-2-2.23-4.33-4-6.34-6.21-1-1.06-2.16-2-3.15-3a2.72,2.72,0,0,0-4.09-.39c-2.91,2.23-5.29,5-7.89,7.58-1.88,1.85-3.8,3.66-5.67,5.53-2.94,2.95-6,5.79-9,8.72-4.25,4.18-8.47,8.4-12.72,12.6Q60.92,85.86,50.94,95.7c-2.15,2.12-4.31,4.24-6.42,6.4a2.58,2.58,0,0,0-.31,3.7,3.67,3.67,0,0,0,3.33,1.41c3,0,5.91-.06,8.87,0,3.57.11,3.09-.44,3.1,3.18,0,16.8,0,33.6,0,50.39,0,2.84,1.07,3.93,3.91,3.93l49.2.07q20.27,0,40.54.12a2.8,2.8,0,0,0,1.32-.35c1.54-.79,1.9-2.1,1.9-3.69q-.06-9.25,0-18.49c0-11.25.11-22.49.13-33.74,0-.8.18-1.07,1-1.06,3.68,0,7.36,0,11,0a3.57,3.57,0,0,0,3.64-2.19c.66-1.5-.15-2.56-1.12-3.51-4.24-4.16-8.49-8.32-12.78-12.43-1.14-1.09-2.1-2.15-1.77-3.88a8.44,8.44,0,0,0,0-1.51q0-15.51,0-31a2.55,2.55,0,0,0-.73-1.84,4,4,0,0,0-3.33-1.14c-6.49,0-13,0-19.46,0-2.21,0-3.32,1.13-3.33,3.32A25,25,0,0,1,129.59,57Z"/><path class="cls-5" d="M64.35,195.63q24.48,0,49,0,19.19,0,38.37,0h4.42c-.43-.14-.76,0-.94-.32a.87.87,0,0,1,.27-.14c.57-.07,1.14-.16,1.71-.19a43.26,43.26,0,0,0,14.67-3.14,36.28,36.28,0,0,0,15.1-12.18c4.31-5.84,6.24-12.56,7-19.69a2.43,2.43,0,0,0-.07-1.28c0-.32,0-.65,0-1,.62-.37-.08-1.31.69-1.62q0,19.74,0,39.48c0,.81-.18,1-1,1q-86.13,0-172.28,0,0-86.46,0-172.93c0-.81.19-1,1-1q17.56,0,35.15,0c0,.5-.4.76-1.25.84A39.24,39.24,0,0,0,42.4,27.3,37.11,37.11,0,0,0,28.31,39.73C24,45.81,22.94,53,21.62,60a25.19,25.19,0,0,0-.08,6.14q0,15.09,0,30.17,0,26.64,0,53.29c0,.15,0,.29-.05.43a64.38,64.38,0,0,0,1.22,13.7A36.65,36.65,0,0,0,55.74,194.8c1.71.19,3.45,0,5.14.47-.17.4-.5.23-1,.36Z"/><path class="cls-5" d="M156.69,23.26a16,16,0,0,1-4.34-.62q20.66,0,41.31,0c.74,0,.89.14.89.88q0,17.64,0,35.26c-.68.29-.51-.33-.56-.58-.3-1.48-.58-3-.81-4.44a35.1,35.1,0,0,0-2-7.27,36.25,36.25,0,0,0-28.93-22.6A24.09,24.09,0,0,0,156.69,23.26Z"/><path class="cls-6" d="M21.54,66.13A25.19,25.19,0,0,1,21.62,60c1.32-7,2.41-14.18,6.69-20.26A37.11,37.11,0,0,1,42.4,27.3a39.24,39.24,0,0,1,13.75-3.82c.85-.08,1.26-.34,1.25-.84H65c-.16.53-.61.41-1,.44A78.69,78.69,0,0,0,49.5,25.29a35.68,35.68,0,0,0-18,11.61,41.26,41.26,0,0,0-6.12,10,34.94,34.94,0,0,0-1.7,5.55A59.37,59.37,0,0,0,22.11,64.6C22.09,65.14,22.14,65.78,21.54,66.13Z"/><path class="cls-6" d="M156.69,23.26a24.09,24.09,0,0,1,5.55.61,36.25,36.25,0,0,1,28.93,22.6,35.1,35.1,0,0,1,2,7.27c.23,1.48.51,3,.81,4.44.05.25-.12.87.56.58v8.65c-.55-.21-.54-.76-.59-1.18a26.33,26.33,0,0,1-.25-3.54A46.53,46.53,0,0,0,191.89,51a30.76,30.76,0,0,0-4.12-9.66,38.22,38.22,0,0,0-8.43-9.42,37.67,37.67,0,0,0-9-5.35,32.64,32.64,0,0,0-8.72-2.25,42.59,42.59,0,0,0-4.37-.64A.49.49,0,0,1,156.69,23.26Z"/><path class="cls-6" d="M194.53,156.09c-.77.31-.07,1.25-.69,1.62-.47-1.84,0-3.63.32-5.43,0-.15.23-.12.37-.08Z"/><path class="cls-5" d="M129.54,57.86l0-.39V57a25,25,0,0,0,.08-3.67c0-2.19,1.12-3.33,3.33-3.32,6.49,0,13,.06,19.46,0a4,4,0,0,1,3.33,1.14,2.55,2.55,0,0,1,.73,1.84q0,15.51,0,31a8.44,8.44,0,0,1,0,1.51c-.33,1.73.63,2.79,1.77,3.88,4.29,4.11,8.54,8.27,12.78,12.43,1,1,1.78,2,1.12,3.51a3.57,3.57,0,0,1-3.64,2.19c-3.67,0-7.35,0-11,0-.82,0-1,.26-1,1.06,0,11.25-.1,22.49-.13,33.74q0,9.24,0,18.49c0,1.59-.36,2.9-1.9,3.69a2.8,2.8,0,0,1-1.32.35q-20.26-.08-40.54-.12l-49.2-.07c-2.84,0-3.92-1.09-3.91-3.93,0-16.79,0-33.59,0-50.39,0-3.62.47-3.07-3.1-3.18-3-.09-5.91,0-8.87,0a3.67,3.67,0,0,1-3.33-1.41,2.58,2.58,0,0,1,.31-3.7c2.11-2.16,4.27-4.28,6.42-6.4Q60.9,85.85,70.86,76c4.25-4.2,8.47-8.42,12.72-12.6,3-2.93,6-5.77,9-8.72,1.87-1.87,3.79-3.68,5.67-5.53,2.6-2.56,5-5.35,7.89-7.58a2.72,2.72,0,0,1,4.09.39c1,1.07,2.18,2,3.15,3,2,2.18,4.39,4,6.34,6.21,1.55,1.79,3.41,3.25,5,5a15.11,15.11,0,0,0,3,2.78,12.4,12.4,0,0,0,1.12,1.27c.34.31.86.35.77-.28A18.3,18.3,0,0,0,129.54,57.86Zm-64,71.26v3.77a.22.22,0,0,0,0,.34V134a2.26,2.26,0,0,0,0,1.36v1.07a.82.82,0,0,0,0,.67v.65l0,1.66v7.41a11.42,11.42,0,0,0,0,3.25v.64a13.67,13.67,0,0,0,0,3.26v.63a11.42,11.42,0,0,0,0,2.48c0,1.46,0,1.47,1.47,1.61,2.87.29,5.75.13,8.63.14q16.86.1,33.71.1a38.79,38.79,0,0,0,5.28-.11l.79,0c.93.07,1.86.2,2.79.2,3.31,0,6.62-.07,9.93-.06,1.33,0,2.66,0,4-.1h.62a3.3,3.3,0,0,0,1.53,0h.62a.87.87,0,0,0,.69,0l1.7,0h.66a6.32,6.32,0,0,0,3.23,0l.42,0a1.35,1.35,0,0,0,.91,0h1.27a53.63,53.63,0,0,0,5.67.07.82.82,0,0,0,.89-.86,11.06,11.06,0,0,0,0-3.3v-1.52l0-.35,0-.3v-1.22a1,1,0,0,0,0-.9v-4.11a30.44,30.44,0,0,0,0-5.4v-.59a.54.54,0,0,0,0-.51V139a2.89,2.89,0,0,0,0-1.57v-.69l.06-3a1.74,1.74,0,0,0,0-1.51l0-.63a.9.9,0,0,0,0-.7v-.6l0-.48v-.63a18.84,18.84,0,0,0,0-5.61v-.44a9.94,9.94,0,0,0,0-4.1V118a1.63,1.63,0,0,0,.15-.4c0-4.42.13-8.84,0-13.26l.06-.6,0-.44a3.19,3.19,0,0,1,2.72-1.84c2.33-.1,4.67-.12,7-.16.27,0,.53.05.66-.23s-.09-.4-.23-.56c-.64-.68-1.27-1.38-1.93-2q-3.75-3.73-7.52-7.45a2.36,2.36,0,0,1-.75-1.82c0-3.71,0-7.42,0-11.13,0-6.92.17-13.84-.05-20.75,0-.93-.31-1.23-1.27-1.22-4,.05-7.93,0-11.89,0-1.5,0-1.52,0-1.54,1.5-.05,3.53-.08,7.06-.11,10.6a2.57,2.57,0,0,1-.82,2c-1.52,1.39-3,1.44-4.48,0-4.5-4.41-9-8.85-13.44-13.28-2.66-2.64-5.33-5.26-8-7.91-.66-.66-1.17-.89-1.94,0-1.18,1.31-2.53,2.46-3.79,3.7L79.36,76.24,56.74,98.55c-.63.57-1.26,1.15-1.87,1.73-.18.17-.35.38-.21.66s.33.22.55.21l2.65-.08h1.69a2,2,0,0,0,1.31,0h1.29a1.45,1.45,0,0,0,.85.09l.8.29.27.15c.67.29.9,1,1.31,1.48a1,1,0,0,0,.17.7V118.5a.08.08,0,0,0,0,.13v10.15A.22.22,0,0,0,65.55,129.12Z"/><path class="cls-6" d="M193.8,158.69a2.43,2.43,0,0,1,.07,1.28c-.73,7.13-2.66,13.85-7,19.69a36.28,36.28,0,0,1-15.1,12.18A43.26,43.26,0,0,1,157.13,195c-.57,0-1.14.12-1.71.19a.87.87,0,0,0-.27.14c.18.36.51.18.94.32h-4.42a13.33,13.33,0,0,0-2.09-.24,20.58,20.58,0,0,1,5.71-.73c2.76,0,5.39-.81,8.09-1.16a30.06,30.06,0,0,0,10.83-3.68,26.73,26.73,0,0,0,6.43-4.82,62.42,62.42,0,0,0,5.78-6.39,29.92,29.92,0,0,0,4.68-8.91c.65-2.21,1.36-4.4,1.8-6.66a21.9,21.9,0,0,1,.43-3.42C193.45,159.29,193.41,158.88,193.8,158.69Z"/><path class="cls-6" d="M64.35,195.63H59.93c.45-.13.78,0,1-.36-1.69-.47-3.43-.28-5.14-.47a36.65,36.65,0,0,1-33-31.08A64.38,64.38,0,0,1,21.47,150c0-.14,0-.28.05-.43a.56.56,0,0,1,.35.51c-.12,1.78.43,3.49.48,5.26a57.51,57.51,0,0,0,2,12.95,32.94,32.94,0,0,0,5.91,11.63,35.17,35.17,0,0,0,6.25,6.47,36.82,36.82,0,0,0,8.19,4.88,49.93,49.93,0,0,0,13.12,3.19c2.27.32,4.6.19,6.88.55l1.84.3C65.7,195.6,65,195.34,64.35,195.63Z"/><path class="cls-6" d="M129.54,57.86a18.3,18.3,0,0,1,.05,2.1c.09.63-.43.59-.77.28A12.4,12.4,0,0,1,127.7,59c.17-.12.39-.37.51-.33C129,58.92,129.19,58.28,129.54,57.86Z"/><path class="cls-6" d="M129.59,57v.45C129.4,57.32,129.41,57.17,129.59,57Z"/><path class="cls-4" d="M150.33,130.38v.6c-.38.23-.37.47,0,.7l0,.63a1.53,1.53,0,0,0,0,1.51l-.06,3v.69a1.06,1.06,0,0,0,0,1.57v.83a.38.38,0,0,0,0,.51V141c-.47.3-.29.82-.26,1.19.1,1.4-.3,2.84.24,4.21,0,.42,0,.84,0,1.26-.2.1-.2.19,0,.29v2.56c-.36.3-.33.6,0,.9v1.22c-.19.11-.19.21,0,.3l0,.35c-.2.1-.19.2,0,.3v1.22a2.89,2.89,0,0,0-.5,2,1.66,1.66,0,0,1-1.52,1.76,19.43,19.43,0,0,1-2,.18,8.4,8.4,0,0,0-2.55.13h-1.27c-.3-.41-.6-.44-.91,0l-.42,0a6.21,6.21,0,0,0-3.23,0h-.43a.14.14,0,0,0-.23,0l-1.7,0q-.34-.59-.69,0h-.62a1.78,1.78,0,0,0-1.53,0H132c-.25-.45-.68-.31-1.06-.31-1.44,0-2.88.13-4.3.07-3.42-.17-6.84,0-10.26-.1-.38,0-.8-.08-1.09.3l-.79,0c-.27-.33-.64-.28-1-.28l-8.74,0q-18.06,0-36.12,0c-2.26,0-3-.78-3.07-3.05a6.18,6.18,0,0,0-.11-.85v-.63a8.72,8.72,0,0,0,0-3.26V150a9.1,9.1,0,0,0,0-3.25c0-.28,0-.57,0-.85,0,0,.06-.05.06-.07a.84.84,0,0,0,0-.17q0-3,0-6v-.28c0-.55,0-1.1,0-1.66,0,0,0-.05,0-.07a.84.84,0,0,0,0-.17v-.41a.56.56,0,0,0,0-.67v-1.07a2,2,0,0,0,0-1.36c0-.25,0-.49,0-.74s0-.23,0-.34c0-1.26,0-2.52,0-3.77V118.63l.07,0-.07-.1V103.81a.69.69,0,0,0-.17-.7c-.41-.52-.64-1.19-1.31-1.48l-.27-.15-.8-.29a.58.58,0,0,0-.85-.09h-.42c-.07-.1-.16-.1-.24,0h-.63a1.38,1.38,0,0,0-1.31,0h-.84a.15.15,0,0,0-.25,0h-.6c-.72-.68-.59-1.75-1.12-2.52L79.36,76.24,103.21,52.7c1.26-1.24,2.61-2.39,3.79-3.7.77-.85,1.28-.62,1.94,0,2.65,2.65,5.32,5.27,8,7.91,4.48,4.43,8.94,8.87,13.44,13.28,1.48,1.45,3,1.4,4.48,0a2.57,2.57,0,0,0,.82-2c0-3.54.06-7.07.11-10.6,0-1.5,0-1.5,1.54-1.5,4,0,7.92.05,11.89,0,1,0,1.24.29,1.27,1.22.22,6.91,0,13.83.05,20.75,0,3.71,0,7.42,0,11.13A2.36,2.36,0,0,0,151.3,91q3.76,3.72,7.52,7.45c.66.66,1.29,1.36,1.93,2,.14.16.34.32.23.56s-.39.23-.66.23c-2.33,0-4.67.06-7,.16a3.19,3.19,0,0,0-2.72,1.84.31.31,0,0,0,0,.44l-.06.6c-.39.33-.28.79-.28,1.21,0,3.8,0,7.6,0,11.41a1.65,1.65,0,0,0,.18,1v1.1a10.11,10.11,0,0,0,0,4.1v.44a6.32,6.32,0,0,0-.22,3.36c.06.74-.43,1.56.21,2.25v.63C150,130.05,150,130.21,150.33,130.38ZM72.78,117.14a4,4,0,0,0,1.1,1.46,2.9,2.9,0,0,0,3.76-.06,42.18,42.18,0,0,1,6.58-5.41,42.77,42.77,0,0,1,22.14-7.08,42.31,42.31,0,0,1,20.76,4.5,45,45,0,0,1,11,7.92,2.88,2.88,0,0,0,4.16.15c1.4-1.44,1.48-3.05,0-4.45a38.94,38.94,0,0,0-3.2-3,50.22,50.22,0,0,0-7.3-5,65.89,65.89,0,0,0-6-2.89,47.31,47.31,0,0,0-13.08-3.12,49.05,49.05,0,0,0-21.15,2.57c-1.57.57-3,1.42-4.59,1.93a12.52,12.52,0,0,0-3.44,1.74,65.8,65.8,0,0,0-7.19,5.1,16.49,16.49,0,0,0-3.52,3.7C72.35,115.87,72.06,116.5,72.78,117.14Zm33.81,3.34a28.25,28.25,0,0,1,8,.79,31,31,0,0,1,10.13,4.57,42.71,42.71,0,0,1,3.56,3.14c1.58,1.32,3.43,1.36,4.66.06s1.06-2.87-.25-4.21a38.64,38.64,0,0,0-12.43-8.12,30.7,30.7,0,0,0-11.46-2.32,35.25,35.25,0,0,0-19,4.7,39.59,39.59,0,0,0-7.67,5.85,2.72,2.72,0,0,0,.09,4,2.94,2.94,0,0,0,4.17.1,24.86,24.86,0,0,1,4.32-3.53A29.14,29.14,0,0,1,106.59,120.48Zm-16,16.33a3.41,3.41,0,0,0,1.84,3.12c1.55.63,2.68-.1,3.78-1.07a16.94,16.94,0,0,1,8.37-4.11,17.18,17.18,0,0,1,13.68,3.48c.85.63,1.44,1.61,2.55,1.9a3,3,0,0,0,3.58-3.93,6.75,6.75,0,0,0-2-2.18,24.22,24.22,0,0,0-7-4.18,21.79,21.79,0,0,0-16.06.13,29.41,29.41,0,0,0-7.38,4.56A3.29,3.29,0,0,0,90.54,136.81Z"/><path class="cls-6" d="M65.5,154.57a6.18,6.18,0,0,1,.11.85c.06,2.27.81,3.05,3.07,3.05q18.06,0,36.12,0l8.74,0c.36,0,.73,0,1,.28a38.79,38.79,0,0,1-5.28.11q-16.86,0-33.71-.1c-2.88,0-5.76.15-8.63-.14-1.48-.14-1.5-.15-1.47-1.61A11.42,11.42,0,0,1,65.5,154.57Z"/><path class="cls-6" d="M115.33,158.81c.29-.38.71-.3,1.09-.3,3.42.06,6.84-.07,10.26.1,1.42.06,2.86-.08,4.3-.07.38,0,.81-.14,1.06.31-1.33.11-2.66.1-4,.1-3.31,0-6.62.06-9.93.06C117.19,159,116.26,158.88,115.33,158.81Z"/><path class="cls-6" d="M150.37,118a1.65,1.65,0,0,1-.18-1c0-3.81,0-7.61,0-11.41,0-.42-.11-.88.28-1.21.15,4.42,0,8.84,0,13.26A1.63,1.63,0,0,1,150.37,118Z"/><path class="cls-6" d="M56.74,98.55c.53.77.4,1.84,1.12,2.52l-2.65.08c-.22,0-.44,0-.55-.21s0-.49.21-.66C55.48,99.7,56.11,99.12,56.74,98.55Z"/><path class="cls-6" d="M143.69,158.85a8.4,8.4,0,0,1,2.55-.13,19.43,19.43,0,0,0,2-.18,1.66,1.66,0,0,0,1.52-1.76,2.89,2.89,0,0,1,.5-2,11.06,11.06,0,0,1,0,3.3.82.82,0,0,1-.89.86A53.63,53.63,0,0,1,143.69,158.85Z"/><path class="cls-6" d="M150.36,129.27c-.64-.69-.15-1.51-.21-2.25a6.32,6.32,0,0,1,.22-3.36A18.84,18.84,0,0,1,150.36,129.27Z"/><path class="cls-6" d="M150.3,146.36c-.54-1.37-.14-2.81-.24-4.21,0-.37-.21-.89.26-1.19A30.44,30.44,0,0,1,150.3,146.36Z"/><path class="cls-6" d="M150.36,123.22a10.11,10.11,0,0,1,0-4.1A9.94,9.94,0,0,1,150.36,123.22Z"/><path class="cls-6" d="M137.86,158.87a6.21,6.21,0,0,1,3.23,0A6.32,6.32,0,0,1,137.86,158.87Z"/><path class="cls-6" d="M65.5,150.68a8.72,8.72,0,0,1,0,3.26A13.67,13.67,0,0,1,65.5,150.68Z"/><path class="cls-6" d="M65.51,146.79a9.1,9.1,0,0,1,0,3.25A11.42,11.42,0,0,1,65.51,146.79Z"/><path class="cls-6" d="M150.33,139a1.06,1.06,0,0,1,0-1.57A2.89,2.89,0,0,1,150.33,139Z"/><path class="cls-6" d="M150.37,133.82a1.53,1.53,0,0,1,0-1.51A1.74,1.74,0,0,1,150.37,133.82Z"/><path class="cls-6" d="M150.29,151.37c-.33-.3-.36-.6,0-.9A1,1,0,0,1,150.29,151.37Z"/><path class="cls-6" d="M141.51,158.85c.31-.44.61-.41.91,0A1.35,1.35,0,0,1,141.51,158.85Z"/><path class="cls-6" d="M132.66,158.85a1.78,1.78,0,0,1,1.53,0A3.3,3.3,0,0,1,132.66,158.85Z"/><path class="cls-6" d="M65.54,134a2,2,0,0,1,0,1.36A2.26,2.26,0,0,1,65.54,134Z"/><path class="cls-6" d="M150.33,131.68c-.37-.23-.38-.47,0-.7A.9.9,0,0,1,150.33,131.68Z"/><path class="cls-6" d="M134.81,158.84q.34-.59.69,0A.87.87,0,0,1,134.81,158.84Z"/><path class="cls-6" d="M59.55,101.09a1.38,1.38,0,0,1,1.31,0A2,2,0,0,1,59.55,101.09Z"/><path class="cls-6" d="M150.33,130.38c-.32-.17-.32-.33,0-.48Z"/><path class="cls-6" d="M62.15,101.1a.58.58,0,0,1,.85.09A1.45,1.45,0,0,1,62.15,101.1Z"/><path class="cls-6" d="M65.38,103.11a.69.69,0,0,1,.17.7A1,1,0,0,1,65.38,103.11Z"/><path class="cls-6" d="M65.49,136.4a.56.56,0,0,1,0,.67A.82.82,0,0,1,65.49,136.4Z"/><path class="cls-6" d="M150.32,140.37a.38.38,0,0,1,0-.51A.54.54,0,0,1,150.32,140.37Z"/><path class="cls-6" d="M150.29,147.91c-.2-.1-.2-.19,0-.29Z"/><path class="cls-6" d="M150.56,103.76a.31.31,0,0,1,0-.44Z"/><path class="cls-6" d="M150.3,152.89c-.21-.09-.21-.19,0-.3Z"/><path class="cls-6" d="M150.28,153.54c-.19-.1-.2-.2,0-.3Z"/><path class="cls-6" d="M150.31,137.07v0Z"/><path class="cls-6" d="M65.51,137.48a.84.84,0,0,1,0,.17s0,0,0,.07Z"/><path class="cls-6" d="M65.54,132.89c0,.11,0,.22,0,.34A.22.22,0,0,1,65.54,132.89Z"/><path class="cls-6" d="M65.53,139.38v0Z"/><path class="cls-6" d="M65.51,145.7a.84.84,0,0,1,0,.17s0,0-.06.07Z"/><path class="cls-6" d="M65.55,128.78v.34A.22.22,0,0,1,65.55,128.78Z"/><path class="cls-6" d="M65.55,118.5l.07.1-.07,0A.08.08,0,0,1,65.55,118.5Z"/><path class="cls-6" d="M63.8,101.48l.27.15Z"/><path class="cls-6" d="M61.49,101.09c.08-.1.17-.1.24,0Z"/><path class="cls-6" d="M137.2,158.86a.14.14,0,0,1,.23,0Z"/><path class="cls-6" d="M58.46,101.07a.15.15,0,0,1,.25,0Z"/><path class="cls-5" d="M72.81,115.25a16.49,16.49,0,0,1,3.52-3.7,65.8,65.8,0,0,1,7.19-5.1A12.52,12.52,0,0,1,87,104.71c1.58-.51,3-1.36,4.59-1.93a49.05,49.05,0,0,1,21.15-2.57,47.31,47.31,0,0,1,13.08,3.12,65.89,65.89,0,0,1,6,2.89,50.22,50.22,0,0,1,7.3,5,38.94,38.94,0,0,1,3.2,3c1.49,1.4,1.41,3,0,4.45a2.88,2.88,0,0,1-4.16-.15,45,45,0,0,0-11-7.92,42.31,42.31,0,0,0-20.76-4.5,42.77,42.77,0,0,0-22.14,7.08,42.18,42.18,0,0,0-6.58,5.41,2.9,2.9,0,0,1-3.76.06,4,4,0,0,1-1.1-1.46Z"/><path class="cls-5" d="M106.59,120.48a29.14,29.14,0,0,0-15.8,5.06,24.86,24.86,0,0,0-4.32,3.53,2.94,2.94,0,0,1-4.17-.1,2.72,2.72,0,0,1-.09-4,39.59,39.59,0,0,1,7.67-5.85,35.25,35.25,0,0,1,19-4.7,30.7,30.7,0,0,1,11.46,2.32,38.64,38.64,0,0,1,12.43,8.12c1.31,1.34,1.43,3,.25,4.21s-3.08,1.26-4.66-.06a42.71,42.71,0,0,0-3.56-3.14,31,31,0,0,0-10.13-4.57A28.25,28.25,0,0,0,106.59,120.48Z"/><path class="cls-5" d="M90.54,136.81a3.29,3.29,0,0,1,1.37-2.28A29.41,29.41,0,0,1,99.29,130a21.79,21.79,0,0,1,16.06-.13,24.22,24.22,0,0,1,7,4.18,6.75,6.75,0,0,1,2,2.18,3,3,0,0,1-3.58,3.93c-1.11-.29-1.7-1.27-2.55-1.9a17.18,17.18,0,0,0-13.68-3.48,16.94,16.94,0,0,0-8.37,4.11c-1.1,1-2.23,1.7-3.78,1.07A3.41,3.41,0,0,1,90.54,136.81Z"/><path class="cls-6" d="M72.81,115.25l0,1.89C72.06,116.5,72.35,115.87,72.81,115.25Z"/></g></g></g></svg>