<svg xmlns="http://www.w3.org/2000/svg" viewBox="0 0 164.23 159.5"><defs><style>.cls-1{fill:#231f20;}</style></defs><title>Asset 11</title><g id="Layer_2" data-name="Layer 2"><g id="Layer_1-2" data-name="Layer 1"><path class="cls-1" d="M110.16,15c2.62-3.55,5.21-7,7.68-10.47a2.79,2.79,0,0,1,3.29-1.31,211.94,211.94,0,0,1,41.75,13.05c.61.27,1.42,1.24,1.34,1.78-.87,6.34-1.9,12.66-2.88,18.87C153,34,145,31,136.87,28.4c-5.35-1.7-10.88-2.89-16.35-4.19-.76-.18-2.11.05-2.41.56a5.21,5.21,0,0,0-.82,3.46A15.2,15.2,0,0,0,119.51,33a4.81,4.81,0,0,0,2.62,2,222.69,222.69,0,0,1,34.71,10l2.36.94c-2,6.48-4,12.88-6,19.32-6.44-2-12.45-3.94-18.53-5.64a191.11,191.11,0,0,0-62.5-6.77c-2.83.16-4.09-.7-5.23-3.27A203.63,203.63,0,0,1,52.84,3.26c-.08-.43-.07-.87-.14-1.8C57.23,1,61.74.19,66.25.1,76.82-.1,87.39.07,98,0a3.91,3.91,0,0,1,3.65,2C104.38,6.33,107.24,10.55,110.16,15Zm-4,17.42c-2-3.61-4-7.21-6-10.77a1.79,1.79,0,0,0-1.26-.8c-6.9-.4-13.81-.74-21.31-1.12,1.39,4.1,2.53,7.57,3.8,11a2,2,0,0,0,1.55,1C90.57,32,98.19,32.15,106.16,32.37Z"/><path class="cls-1" d="M47.35,2.4c1,4.79,1.84,9.48,3.13,14,2.32,8.2,4.86,16.35,7.48,24.47.53,1.67.41,2.64-.88,3.86-2.8,2.63-5.41,5.48-8.41,8.55,4.65.82,8.77,1.63,12.91,2.25a4.89,4.89,0,0,1,4,2.85c4,7.27,8.16,14.4,12.18,21.64A3.17,3.17,0,0,1,78,82.75C74.09,88.09,70,93.31,65.84,98.82A23.66,23.66,0,0,1,64,96.5c-5.91-9.79-11.86-19.57-17.66-29.43A5.08,5.08,0,0,0,38,66.25c-2.38,2.64-2.7,4.93-.86,8.1,6.48,11.18,12.73,22.5,19.31,34.21L42.38,121.45c-2.92-4-5.78-7.81-8.43-11.72A201.43,201.43,0,0,1,.29,21.44C-.32,16.65-.33,16.65,4,14.87,18,9.15,35.72,4,47.35,2.4ZM31.25,27c-2.37.76-4.6,1.59-6.89,2.18-1.83.48-2.07,1.46-1.6,3.1C25,39.84,27.12,47.45,29.31,55a16.7,16.7,0,0,0,.86,2c2.45-2.93,4.73-5.6,6.92-8.34a2.31,2.31,0,0,0,.44-1.81C35.52,40.31,33.42,33.8,31.25,27Z"/><path class="cls-1" d="M151.19,70.28A210.6,210.6,0,0,1,132,107.09L115.14,95.5l7.64-12.63c-4-.81-7.54-1.6-11.14-2.21a2.35,2.35,0,0,0-1.76,1.08c-3.56,5.66-7,11.37-10.51,17l26.45,17.18A207.51,207.51,0,0,1,82.06,159.5a208.92,208.92,0,0,1-36.39-34.11c1.89-1.68,3.75-3.25,5.52-4.92,3.8-3.56,7.52-7.19,11.34-10.72.61-.56,1.79-1.21,2.37-1,6.44,2.54,12.82,5.25,19.71,8.13L75,126.9l7.29,6.62c6.35-6.51,12.59-12.89,19.47-19.92L72.19,99.16c2-2.54,4.37-5.13,6.24-8Q88.14,76,97.49,60.69c.89-1.45,1.6-2.15,3.42-2A195.73,195.73,0,0,1,151.19,70.28Z"/></g></g></svg>